<svg width="71" height="21" viewBox="0 0 71 21" fill="none" xmlns="http://www.w3.org/2000/svg">
<path d="M0.959878 20.4567V0.296725H8.81388C10.0179 0.296725 11.0445 0.544058 11.8939 1.03872C12.7525 1.53339 13.4059 2.18672 13.8539 2.99872C14.3112 3.80139 14.5399 4.66939 14.5399 5.60272C14.5399 6.69472 14.2599 7.65139 13.6999 8.47273C13.1399 9.29406 12.3839 9.85873 11.4319 10.1667L11.4039 9.48073C12.7012 9.82606 13.7092 10.4607 14.4279 11.3847C15.1465 12.3087 15.5059 13.4101 15.5059 14.6887C15.5059 15.8647 15.2632 16.8821 14.7779 17.7407C14.3019 18.5994 13.6112 19.2667 12.7059 19.7427C11.8099 20.2187 10.7459 20.4567 9.51388 20.4567H0.959878ZM3.47988 18.0767H9.03788C9.78455 18.0767 10.4519 17.9414 11.0399 17.6707C11.6279 17.3907 12.0899 16.9987 12.4259 16.4947C12.7712 15.9907 12.9439 15.3841 12.9439 14.6747C12.9439 13.9934 12.7899 13.3821 12.4819 12.8407C12.1832 12.2994 11.7585 11.8701 11.2079 11.5527C10.6665 11.2261 10.0365 11.0627 9.31788 11.0627H3.47988V18.0767ZM3.47988 8.71073H8.78588C9.38321 8.71073 9.91988 8.58473 10.3959 8.33273C10.8812 8.07139 11.2639 7.70739 11.5439 7.24073C11.8332 6.77406 11.9779 6.22806 11.9779 5.60272C11.9779 4.73473 11.6839 4.02539 11.0959 3.47473C10.5079 2.92406 9.73788 2.64873 8.78588 2.64873H3.47988V8.71073ZM22.2782 20.4567V12.0707L15.4882 0.296725H18.3862L23.5382 9.21473L28.6762 0.296725H31.5742L24.7982 12.0707V20.4567H22.2782ZM39.5679 20.4567V2.66273H32.6939V0.296725H48.9339V2.66273H42.0599V20.4567H39.5679ZM51.163 20.4567V0.296725H63.903V2.66273H53.655V8.97673H62.223V11.3427H53.655V18.0907H63.903V20.4567H51.163ZM67.7165 20.4567V17.7127H70.4605V20.4567H67.7165Z" fill="#F7F5ED"/>
</svg>
